<svg xmlns="http://www.w3.org/2000/svg" width="20" height="20" viewBox="0 0 20 20">
    <defs>
        <linearGradient id="a1iao16nca" x1=".501" y1="1" x2=".501" y2=".002" gradientUnits="objectBoundingBox">
            <stop offset="0" stop-color="#20b038"/>
            <stop offset="1" stop-color="#60d66a"/>
        </linearGradient>
        <linearGradient id="udximkmmfb" x1=".501" y1="1" x2=".501" y2=".002" gradientUnits="objectBoundingBox">
            <stop offset="0" stop-color="#f9f9f9"/>
            <stop offset="1" stop-color="#fff"/>
        </linearGradient>
    </defs>
    <g data-name="Group 2306">
        <path data-name="Path 121" d="M.158-533.211a9.516 9.516 0 0 0 1.283 4.783l-1.364 4.957 5.1-1.33a9.643 9.643 0 0 0 4.594 1.164 9.6 9.6 0 0 0 9.613-9.567 9.485 9.485 0 0 0-2.813-6.769 9.574 9.574 0 0 0-6.8-2.806 9.6 9.6 0 0 0-9.613 9.567" transform="translate(.269 543.124)" style="fill:url(#a1iao16nca)"/>
        <path data-name="Path 122" d="M.156-551.917a9.859 9.859 0 0 0 1.329 4.955l-1.413 5.135 5.279-1.373a9.988 9.988 0 0 0 4.759 1.2 9.949 9.949 0 0 0 9.958-9.911 9.827 9.827 0 0 0-2.914-7.011 9.918 9.918 0 0 0-7.044-2.907 9.948 9.948 0 0 0-9.958 9.91zm3.144 4.7-.2-.312a8.188 8.188 0 0 1-1.265-4.384 8.269 8.269 0 0 1 8.28-8.237 8.243 8.243 0 0 1 5.852 2.416 8.169 8.169 0 0 1 2.422 5.828 8.269 8.269 0 0 1-8.277 8.237 8.294 8.294 0 0 1-4.212-1.152L5.6-545l-3.133.818z" transform="translate(-.072 561.827)" style="fill:url(#udximkmmfb)"/>
        <path data-name="Path 123" d="M173.4 175.046c-.186-.413-.383-.421-.56-.428-.145-.006-.311-.006-.477-.006a.916.916 0 0 0-.663.31 2.772 2.772 0 0 0-.871 2.066 4.807 4.807 0 0 0 1.016 2.562 10.2 10.2 0 0 0 4.25 3.739c2.1.825 2.53.661 2.986.62a2.513 2.513 0 0 0 1.68-1.177 2.062 2.062 0 0 0 .145-1.178c-.062-.1-.228-.165-.477-.289s-1.472-.723-1.7-.806-.394-.124-.56.124-.642.806-.788.971-.29.186-.539.062a6.811 6.811 0 0 1-2-1.229 7.47 7.47 0 0 1-1.384-1.715c-.145-.248-.016-.382.109-.506s.249-.289.373-.434a1.7 1.7 0 0 0 .249-.413.454.454 0 0 0-.021-.434c-.062-.124-.546-1.349-.767-1.839" transform="translate(-165.848 -169.279)" style="fill:#fff;fill-rule:evenodd"/>
    </g>
</svg>
