<svg data-name="Group 848" xmlns="http://www.w3.org/2000/svg" width="36.181" height="36.181" viewBox="0 0 36.181 36.181">
    <path data-name="Rectangle 452" style="fill:transparent" d="M0 0h36.181v36.181H0z"/>
    <path data-name="Icon ionic-logo-youtube" d="M27.191 9.034a4.156 4.156 0 0 0-3.956-4.341 193.659 193.659 0 0 0-9.067-.192h-.962c-3.079 0-6.105.053-9.067.192A4.165 4.165 0 0 0 .187 9.044c-.134 1.9-.192 3.807-.187 5.71s.053 3.807.182 5.715a4.17 4.17 0 0 0 3.951 4.357c3.111.144 6.3.209 9.548.2q4.876.016 9.548-.2a4.171 4.171 0 0 0 3.956-4.357 82.17 82.17 0 0 0 .182-5.72q.016-2.855-.176-5.715zM11.067 20V9.493l7.752 5.25z" transform="translate(5.027 3.041)" style="fill:#0c0c0f"/>
</svg>
