<svg xmlns="http://www.w3.org/2000/svg" width="41.554" height="34" viewBox="0 0 41.554 34">
  <defs>
    <style>
      .cls-1 {
        fill: #0c9d58;
      }

      .cls-2 {
        fill: #004d40;
      }

      .cls-10, .cls-2, .cls-3, .cls-5, .cls-9 {
        opacity: 0.2;
      }

      .cls-2, .cls-3, .cls-5, .cls-9 {
        isolation: isolate;
      }

      .cls-3, .cls-8 {
        fill: #fff;
      }

      .cls-4 {
        fill: #ea4335;
      }

      .cls-5 {
        fill: #3e2723;
      }

      .cls-6 {
        fill: #ffc107;
      }

      .cls-7 {
        fill: #4285f4;
      }

      .cls-11, .cls-9 {
        fill: #1a237e;
      }
    </style>
  </defs>
  <g id="google-news-icon" transform="translate(0.004)">
    <path id="Path_101" data-name="Path 101" class="cls-1" d="M128.359,23.063a1.059,1.059,0,0,1-1.06,1.052H104.864a1.059,1.059,0,0,1-1.064-1.052V1.052A1.064,1.064,0,0,1,104.864,0H127.3a1.059,1.059,0,0,1,1.06,1.052Z" transform="translate(-95.308 0)"/>
    <path id="Path_102" data-name="Path 102" class="cls-2" d="M309.548,56.993,301.14,55.91l8.408,2.256Z" transform="translate(-276.498 -51.334)"/>
    <path id="Path_103" data-name="Path 103" class="cls-2" d="M115.973,13.063,103.24,18.751l14.077-5.122v-.014a1.028,1.028,0,0,0-1.34-.549Z" transform="translate(-94.794 -11.918)"/>
    <path id="Path_104" data-name="Path 104" class="cls-3" d="M127.3,0H104.864A1.064,1.064,0,0,0,103.8,1.053v.236A1.064,1.064,0,0,1,104.864.236H127.3a1.059,1.059,0,0,1,1.06,1.052V1.052A1.059,1.059,0,0,0,127.3,0Z" transform="translate(-95.308 0)"/>
    <path id="Path_105" data-name="Path 105" class="cls-4" d="M169.938,59.549a1.025,1.025,0,0,0,.672,1.282l20.779,5.588a1.028,1.028,0,0,0,1.224-.773l4.895-18.269a1.026,1.026,0,0,0-.673-1.282l-20.779-5.589a1.028,1.028,0,0,0-1.223.774Z" transform="translate(-155.998 -37.163)"/>
    <path id="Path_106" data-name="Path 106" class="cls-5" d="M450.04,204.47l1.093,6.64-1.093,4.081Z" transform="translate(-413.212 -187.736)"/>
    <path id="Path_107" data-name="Path 107" class="cls-5" d="M302.34,59.22l.98.264.607,4.1Z" transform="translate(-277.6 -54.373)"/>
    <path id="Path_108" data-name="Path 108" class="cls-3" d="M197.1,46.1l-20.776-5.589a1.028,1.028,0,0,0-1.223.774l-4.9,18.269c-.008.031-.01.061-.016.092l4.858-18.131a1.029,1.029,0,0,1,1.224-.773l20.779,5.592a1.019,1.019,0,0,1,.688,1.19l.037-.138A1.026,1.026,0,0,0,197.1,46.1Z" transform="translate(-156.265 -37.163)"/>
    <path id="Path_109" data-name="Path 109" class="cls-6" d="M30.31,38.584a1.029,1.029,0,0,1-.558,1.336L7.825,47.9a1.028,1.028,0,0,1-1.286-.665L.07,29.466a1.028,1.028,0,0,1,.558-1.335L22.556,20.15a1.028,1.028,0,0,1,1.286.665Z" transform="translate(-0.005 -18.451)"/>
    <path id="Path_110" data-name="Path 110" class="cls-3" d="M.149,29.685A1.029,1.029,0,0,1,.707,28.35l21.927-7.981a1.026,1.026,0,0,1,1.278.647l-.075-.207a1.028,1.028,0,0,0-1.286-.664L.623,28.126a1.027,1.027,0,0,0-.558,1.335l6.47,17.773.008.017Z" transform="translate(0 -18.446)"/>
    <path id="Path_111" data-name="Path 111" class="cls-7" d="M89.788,136.22a1.064,1.064,0,0,1-1.064,1.064H58.744a1.064,1.064,0,0,1-1.064-1.064V113.554a1.064,1.064,0,0,1,1.064-1.064H88.729a1.064,1.064,0,0,1,1.064,1.064Z" transform="translate(-52.963 -103.284)"/>
    <path id="Path_112" data-name="Path 112" class="cls-8" d="M279.422,195.651H270.45V193.29h8.972a.472.472,0,0,1,.472.472v1.416a.472.472,0,0,1-.472.473Zm0,8.971H270.45v-2.361h8.972a.472.472,0,0,1,.472.472v1.417A.472.472,0,0,1,279.422,204.622Zm1.417-4.486H270.45v-2.361h10.389a.473.473,0,0,1,.472.472v1.417A.472.472,0,0,1,280.839,200.136Z" transform="translate(-248.32 -177.471)"/>
    <path id="Path_113" data-name="Path 113" class="cls-9" d="M88.729,400.6H58.744a1.064,1.064,0,0,1-1.064-1.064v.237a1.064,1.064,0,0,0,1.064,1.064H88.729a1.064,1.064,0,0,0,1.064-1.064v-.237A1.064,1.064,0,0,1,88.729,400.6Z" transform="translate(-52.963 -366.841)"/>
    <path id="Path_114" data-name="Path 114" class="cls-3" d="M58.744,112.737H88.729a1.064,1.064,0,0,1,1.064,1.064v-.237a1.064,1.064,0,0,0-1.064-1.064H58.744a1.064,1.064,0,0,0-1.064,1.064v.237A1.064,1.064,0,0,1,58.744,112.737Z" transform="translate(-52.963 -103.293)"/>
    <path id="Path_115" data-name="Path 115" class="cls-8" d="M108.787,198.018v2.128h3.055a2.884,2.884,0,0,1-3.055,2.238,3.424,3.424,0,0,1,0-6.847,3.078,3.078,0,0,1,2.174.85h0l1.617-1.617a5.443,5.443,0,0,0-3.792-1.473,5.666,5.666,0,1,0,0,11.333,5.215,5.215,0,0,0,5.425-5.538,6.8,6.8,0,0,0-.089-1.073Z" transform="translate(-94.684 -177.475)"/>
    <g id="Group_781" data-name="Group 781" class="cls-10" transform="translate(8.499 17.308)">
      <path id="Path_116" data-name="Path 116" class="cls-11" d="M173.09,277v.236h3q.034-.116.056-.236Z" transform="translate(-167.427 -271.638)"/>
      <path id="Path_117" data-name="Path 117" class="cls-11" d="M109.553,221.324a5.665,5.665,0,0,1-5.663-5.548c0,.039,0,.081,0,.117a5.667,5.667,0,0,0,5.667,5.667,5.214,5.214,0,0,0,5.425-5.537v-.076A5.207,5.207,0,0,1,109.553,221.324Zm2.174-8.241a3.081,3.081,0,0,0-2.174-.849,3.412,3.412,0,0,0-3.355,3.423.786.786,0,0,0,.006.118,3.413,3.413,0,0,1,3.355-3.306,3.073,3.073,0,0,1,2.168.854h0l1.735-1.735c-.041-.038-.082-.071-.128-.108l-1.607,1.607Z" transform="translate(-103.89 -211.48)"/>
    </g>
    <path id="Path_118" data-name="Path 118" class="cls-9" d="M279.894,216.6v-.237a.472.472,0,0,1-.472.472H270.45v.235h8.972a.471.471,0,0,0,.472-.471Zm-.472,9.208H270.45v.236h8.972a.472.472,0,0,0,.472-.472v-.235A.472.472,0,0,1,279.422,225.8Zm1.417-4.487H270.45v.237h10.389a.472.472,0,0,0,.472-.472v-.236A.472.472,0,0,1,280.839,221.318Z" transform="translate(-248.32 -198.653)"/>
  </g>
</svg>
