<svg xmlns="http://www.w3.org/2000/svg" width="13.852" height="15.295" viewBox="0 0 13.852 15.295">
    <path data-name="Icon ionic-md-share" d="M16.037 13.931a2.1 2.1 0 0 0-1.505.576l-5.518-3.19a2.584 2.584 0 0 0 .077-.538 2.583 2.583 0 0 0-.077-.538l5.441-3.151a2.309 2.309 0 1 0-.733-1.69 2.569 2.569 0 0 0 .077.538l-5.44 3.151a2.323 2.323 0 0 0-1.582-.615A2.284 2.284 0 0 0 4.5 10.78a2.323 2.323 0 0 0 3.9 1.691l5.479 3.19a1.928 1.928 0 0 0-.077.5 2.238 2.238 0 1 0 2.238-2.229z" transform="translate(-4.5 -3.094)" style="fill:gray"/>
</svg>
