<svg xmlns="http://www.w3.org/2000/svg" width="24.441" height="20" viewBox="0 0 24.441 20">
    <path data-name="Path 40141" d="M60.244 48.056a.611.611 0 0 1-.617.617h-13.21a.611.611 0 0 1-.617-.617V35.117a.611.611 0 0 1 .617-.617h13.21a.611.611 0 0 1 .617.617z" transform="translate(-40.79 -34.5)" style="fill:#34a853"/>
    <path data-name="Path 40142" d="M58.622 53.638a.631.631 0 0 0 .4.765l12.222 3.284a.608.608 0 0 0 .716-.444L74.844 46.5a.631.631 0 0 0-.4-.765l-12.217-3.282a.608.608 0 0 0-.716.444z" transform="translate(-50.427 -40.477)" style="fill:#e53935"/>
    <path data-name="Path 40143" d="M43.345 49.28a.61.61 0 0 1-.321.79l-12.889 4.691a.631.631 0 0 1-.765-.4L25.567 43.9a.61.61 0 0 1 .321-.79l12.889-4.691a.631.631 0 0 1 .765.4z" transform="translate(-25.52 -37.428)" style="fill:#fbbc04"/>
    <path data-name="Path 40144" d="M25.616 44.045a.61.61 0 0 1 .321-.79l12.889-4.691a.6.6 0 0 1 .741.37l-.049-.123a.631.631 0 0 0-.765-.4l-12.865 4.72a.6.6 0 0 0-.321.79l3.8 10.444z" transform="translate(-25.52 -37.428)" style="opacity:.2;fill:#fff"/>
    <path data-name="Path 40145" d="M55.689 70.451a.611.611 0 0 1-.617.617H37.417a.611.611 0 0 1-.617-.617V57.117a.611.611 0 0 1 .617-.617h17.63a.611.611 0 0 1 .617.617v13.334z" transform="translate(-34.012 -51.068)" style="fill:#4285f4"/>
    <path data-name="Path 40146" d="M83.484 73.583H78.2V72.2h5.284a.274.274 0 0 1 .272.272v.84a.274.274 0 0 1-.272.271z" transform="translate(-65.19 -62.891)" style="fill:#fff"/>
    <path data-name="Path 40147" d="M83.484 94.983H78.2V93.6h5.284a.274.274 0 0 1 .272.272v.84a.274.274 0 0 1-.272.271z" transform="translate(-65.19 -79.007)" style="fill:#fff"/>
    <path data-name="Path 40148" d="M84.323 84.283H78.2V82.9h6.123a.274.274 0 0 1 .272.272v.84a.274.274 0 0 1-.272.271z" transform="translate(-65.19 -70.949)" style="fill:#fff"/>
    <path data-name="Path 40149" d="M49.009 74.815v1.259h1.8a1.688 1.688 0 0 1-1.8 1.309 2.025 2.025 0 0 1 0-4.049 1.854 1.854 0 0 1 1.284.494l.963-.963A3.158 3.158 0 0 0 49.033 72a3.333 3.333 0 0 0 0 6.667 2.994 2.994 0 0 0 3.16-3.21 5.619 5.619 0 0 0-.049-.642z" transform="translate(-40.715 -62.741)" style="fill:#fff"/>
</svg>
