<svg id="Group_843" data-name="Group 843" xmlns="http://www.w3.org/2000/svg" width="42" height="42" viewBox="0 0 42 42">
  <defs>
    <style>
      .cls-1 {
        fill: #f7f7f8;
      }

      .cls-2 {
        fill: #0a66c2;
      }
    </style>
  </defs>
  <rect id="Rectangle_448" data-name="Rectangle 448" class="cls-1" width="42" height="42"/>
  <path id="Icon_awesome-linkedin-in" data-name="Icon awesome-linkedin-in" class="cls-2" d="M5.82,26H.429V8.642H5.82ZM3.122,6.274A3.137,3.137,0,1,1,6.243,3.122,3.148,3.148,0,0,1,3.122,6.274ZM25.994,26H20.615V17.55c0-2.014-.041-4.6-2.8-4.6-2.8,0-3.232,2.188-3.232,4.451V26H9.2V8.642h5.17v2.368h.075a5.664,5.664,0,0,1,5.1-2.8C25,8.206,26,11.8,26,16.465V26Z" transform="translate(8 8)"/>
</svg>
