<svg xmlns="http://www.w3.org/2000/svg" width="100" height="92.165" viewBox="0 0 100 92.165">
  <g id="Group_788" data-name="Group 788" transform="translate(-1034.379 660.515)">
    <g id="Group_787" data-name="Group 787" transform="translate(1034.379 -660.515)">
      <path id="Path_36151" data-name="Path 36151" d="M1133.464-617.234c-1.434-3.748-4.123-6.49-7.253-8.854a42.823,42.823,0,0,0-10.173-5.469c-.541-.214-.728-.447-.648-1.058.178-1.352.295-2.717.353-4.08a34.437,34.437,0,0,0-1.887-14.1c-1.754-4.531-4.7-7.917-9.562-9.238-3.7-1.007-7.284-.326-10.771,1.042a37.617,37.617,0,0,0-10.313,6.373c-1.426,1.191-1.417,1.191-2.988.275a41.143,41.143,0,0,0-15.2-5.715,16.885,16.885,0,0,0-9.736,1.156c-5.249,2.495-7.413,7.018-7.986,12.508a34.1,34.1,0,0,0,1.318,12.437c.516,1.926.509,1.937-1.257,2.868a28.917,28.917,0,0,0-9.749,7.792c-3.347,4.356-4.257,9.132-1.963,14.267a20.81,20.81,0,0,0,6.935,8.034,43.157,43.157,0,0,0,9.814,5.321c.433.175.8.329.7.958a22.756,22.756,0,0,0-.081,4.678,28.691,28.691,0,0,0,2.518,11.43c2.583,5.27,6.715,8.266,12.711,8.259,3.973-.005,7.55-1.466,10.945-3.39a48.1,48.1,0,0,0,10.2-7.951.87.87,0,0,1,1.234-.2c1.108.607,2.249,1.159,3.4,1.671a30.829,30.829,0,0,0,14.042,3.068,13.519,13.519,0,0,0,12.4-9.241,23.937,23.937,0,0,0,.9-10.6,1.212,1.212,0,0,1,.732-1.443,29.894,29.894,0,0,0,6.568-4.685,17.709,17.709,0,0,0,5.188-7.877,5.11,5.11,0,0,1,.516-1.719v-.391a.86.86,0,0,1,0-1.172v-.586c-.241-.391-.372-.781,0-1.172v-.2C1134.077-615.228,1133.838-616.257,1133.464-617.234Zm-47.416-31.944c3.294-2.679,6.762-5.069,10.91-6.219,3.586-.994,7.039-.9,9.9,1.906a12.762,12.762,0,0,1,3.085,5.341,33.136,33.136,0,0,1,1.118,13.014c-.044.549-.1,1.1-.168,1.788a89.234,89.234,0,0,0-10.289-2.35,1.381,1.381,0,0,1-.813-.48,95.4,95.4,0,0,0-13.6-12.244C1085.926-648.619,1085.532-648.758,1086.048-649.178Zm-28,52.135a75.729,75.729,0,0,1,2.4-10.764,104.628,104.628,0,0,0,12.213,14.4,77.311,77.311,0,0,1-9.873-1.766c-1.416-.349-2.815-.766-4.224-1.143C1058.176-596.415,1057.97-596.556,1058.046-597.043Zm-.466-24.376c-.964-1.77-1.675-3.653-2.49-5.49-.125-.281-.376-.574.146-.76a69.8,69.8,0,0,1,10.068-2.824,98.853,98.853,0,0,0-6.022,12.359C1058.666-619.326,1058.144-620.384,1057.58-621.419Zm5.014,8.671a1.107,1.107,0,0,1-.1-1.156,99.5,99.5,0,0,1,8.395-17.087,1.193,1.193,0,0,1,.967-.652,93.275,93.275,0,0,1,12.849-.784,96.521,96.521,0,0,1,12.638.823,1.437,1.437,0,0,1,.963.568,98.856,98.856,0,0,1,8.961,12.027,1.129,1.129,0,0,1,.125,1.08,99.118,99.118,0,0,1-12.167,24.172,1.252,1.252,0,0,1-1.017.611,111.635,111.635,0,0,1-13.447.419,1.647,1.647,0,0,1-1.135-.42A98.305,98.305,0,0,1,1062.594-612.748Zm42.284-17.505c1.75.474,3.243.9,4.748,1.274.493.123.614.331.5.811-.294,1.189-.549,2.388-.866,3.785Zm5.638,16.962a70.661,70.661,0,0,1,4.02,9.057c.585,1.653,1.063,3.333,1.542,5.017.167.589.031.773-.488.983a72.239,72.239,0,0,1-14.682,4.133A103.987,103.987,0,0,0,1110.516-613.291Zm-28.887-31.732c.525-.55.819-.512,1.392-.093a89.662,89.662,0,0,1,9.995,8.492,108.373,108.373,0,0,0-17.2-.026,1.461,1.461,0,0,1-.9.16c-.384-.016-.326-.191-.094-.384A82.345,82.345,0,0,1,1081.629-645.024Zm-29.893,1.733a13.813,13.813,0,0,1,1.161-5.092c1.9-4.011,5.295-5.386,9.477-5.315,4.216.072,8.065,1.5,11.81,3.278a37.03,37.03,0,0,1,4.163,2.276,84.167,84.167,0,0,0-9.484,11.876,1.247,1.247,0,0,1-.92.6,74.061,74.061,0,0,0-14,3.645c-.456.173-.66.111-.8-.4A33.1,33.1,0,0,1,1051.737-643.291Zm5.274,31.233a79.206,79.206,0,0,0-3.276,13.312c-.066.432-.121.664-.655.43-4.346-1.907-8.463-4.144-11.583-7.854a10.221,10.221,0,0,1-2.552-6.567,10.949,10.949,0,0,1,3.327-7.09,28.094,28.094,0,0,1,7.817-5.577c.453-.234.586-.147.762.291a79.6,79.6,0,0,0,6.077,11.958A1.176,1.176,0,0,1,1057.011-612.057Zm28.557,29.823c-3.818,3.576-7.863,6.813-12.9,8.523a12.134,12.134,0,0,1-6.9.537,9,9,0,0,1-5.974-5.182A24.837,24.837,0,0,1,1057.551-589c.108-.863-.448-2.123.2-2.624.536-.415,1.678.307,2.547.538a85.574,85.574,0,0,0,16.227,2.638,4.716,4.716,0,0,1,3.007,1.109,57.445,57.445,0,0,0,5.877,4.34C1085.723-582.786,1086.014-582.652,1085.568-582.234Zm5.345-5.836c-1.925,2.37-1.959,2.37-4.834-.095h4.842C1090.922-588.182,1090.942-588.106,1090.913-588.07Zm22.989,5.86a8.807,8.807,0,0,1-5.3,2.421,19.411,19.411,0,0,1-8.446-.968,39.941,39.941,0,0,1-6.917-2.907c1.335-1.692,2.624-3.321,3.905-4.956a1.04,1.04,0,0,1,.741-.4,78.841,78.841,0,0,0,18.816-4.745,1.96,1.96,0,0,1,.292-.049C1117.225-589.59,1117.123-585.484,1113.9-582.21Zm12-22.448a26.615,26.615,0,0,1-4.892,3.684c-.455.278-.6.267-.754-.305a69.98,69.98,0,0,0-7.235-16.93,2.342,2.342,0,0,1-.209-1.994c.587-2.124,1.1-4.268,1.609-6.412.1-.429.164-.645.67-.432a33.871,33.871,0,0,1,11.3,7.083,10.864,10.864,0,0,1,3.431,7.311C1129.776-609.368,1128.133-606.859,1125.9-604.658Z" transform="translate(-1034.379 660.515)" fill="#909090"/>
      <path id="Path_36152" data-name="Path 36152" d="M1453.416-464.366v-1.172A1.5,1.5,0,0,0,1453.416-464.366Z" transform="translate(-1353.416 512.025)" fill="#909090"/>
      <path id="Path_36153" data-name="Path 36153" d="M1453.416-457v-1.172A1.5,1.5,0,0,0,1453.416-457Z" transform="translate(-1353.416 506.412)" fill="#909090"/>
      <path id="Path_36154" data-name="Path 36154" d="M1204-561.365c.23.528.645.237,1,.224C1204.687-561.331,1204.255-560.963,1204-561.365Z" transform="translate(-1163.555 585.005)" fill="#909090"/>
    </g>
    <path id="Path_36155" data-name="Path 36155" d="M1209.5-497.372a8.308,8.308,0,0,1,8.259-8.257,8.326,8.326,0,0,1,8.26,8.263,8.339,8.339,0,0,1-8.315,8.308A8.315,8.315,0,0,1,1209.5-497.372Z" transform="translate(-133.371 -117.957)" fill="#909090"/>
  </g>
</svg>
