<svg id="Group_7035" data-name="Group 7035" xmlns="http://www.w3.org/2000/svg" xmlns:xlink="http://www.w3.org/1999/xlink" width="111.81" height="24.079" viewBox="0 0 111.81 24.079">
  <defs>
    <style>
      .cls-1 {
        fill: #fff;
      }

      .cls-2 {
        clip-path: url(#clip-path);
      }
    </style>
    <clipPath id="clip-path">
      <rect id="Rectangle_1638" data-name="Rectangle 1638" class="cls-1" width="111.81" height="24.079"/>
    </clipPath>
  </defs>
  <path id="Path_2732" data-name="Path 2732" class="cls-1" d="M2.746,18.5H18.368v2.893H2.746ZM9.206,2.784h9.162V16.669H15.475V5.675H12.1l0,0v7.616H9.206Zm-6.46-.1H5.639V16.669H2.746ZM0,24.079H21.117V0H0Z"/>
  <path id="Path_2733" data-name="Path 2733" class="cls-1" d="M192.813,22.206h-1.777V10.837l-.428.017h-.657v-.9h3.175V22.206Z" transform="translate(-161.242 -8.446)"/>
  <g id="Group_7020" data-name="Group 7020">
    <g id="Group_7019" data-name="Group 7019" class="cls-2">
      <path id="Path_2734" data-name="Path 2734" class="cls-1" d="M235.8,10.746c-.378,1.037-3.751,10.561-4.1,11.285l-.065.165h-1.185l.131-.346c.246-.691,3.011-8.16,3.635-9.854H228.94V9.94h7.14l-.281.8Z" transform="translate(-194.339 -8.438)"/>
      <path id="Path_2735" data-name="Path 2735" class="cls-1" d="M318.632,22.206V9.95h2.105V21.383h6.531v.822h-8.636Z" transform="translate(-270.473 -8.446)"/>
      <path id="Path_2736" data-name="Path 2736" class="cls-1" d="M393.788,22.2a5.491,5.491,0,0,1-4.212-1.709,5.871,5.871,0,0,1-1.809-4.507,5.685,5.685,0,0,1,1.826-4.392,5.61,5.61,0,0,1,4.179-1.644,5.954,5.954,0,0,1,6.071,5.834c0,.089,0,.18,0,.269a5.9,5.9,0,0,1-1.777,4.442,5.569,5.569,0,0,1-4.277,1.709m-.017-11.435a2.892,2.892,0,0,0-2.616,1.316,6.273,6.273,0,0,0-1.053,3.964,6.393,6.393,0,0,0,1.053,4.014,3.037,3.037,0,0,0,2.748,1.3,3.155,3.155,0,0,0,2.7-1.3c.707-.872.889-2.172.889-4s-.181-3.077-.872-3.948a3.223,3.223,0,0,0-2.849-1.348" transform="translate(-329.156 -8.442)"/>
      <path id="Path_2737" data-name="Path 2737" class="cls-1" d="M491.608,22.2a5.492,5.492,0,0,1-4.212-1.709,5.871,5.871,0,0,1-1.809-4.507,5.685,5.685,0,0,1,1.826-4.392,5.61,5.61,0,0,1,4.179-1.644,5.954,5.954,0,0,1,6.071,5.834c0,.089,0,.18,0,.269a5.9,5.9,0,0,1-1.777,4.442,5.569,5.569,0,0,1-4.277,1.709m-.017-11.435a2.892,2.892,0,0,0-2.616,1.316,6.272,6.272,0,0,0-1.053,3.964,6.392,6.392,0,0,0,1.053,4.014,3.036,3.036,0,0,0,2.749,1.3,3.155,3.155,0,0,0,2.7-1.3c.707-.872.889-2.172.889-4s-.181-3.077-.872-3.948a3.224,3.224,0,0,0-2.849-1.348" transform="translate(-412.192 -8.442)"/>
      <path id="Path_2738" data-name="Path 2738" class="cls-1" d="M594.289,22.206V12.25L589.9,22.2h-.674l-4.357-9.952v9.955h-.806V9.95h1.974l4.212,9.508L594.44,9.95h1.974V22.206Z" transform="translate(-495.787 -8.446)"/>
      <path id="Path_2739" data-name="Path 2739" class="cls-1" d="M687.125,22.273a5.064,5.064,0,0,1-3.405-2.253l.593-.657c1.02,1.448,1.644,1.909,2.764,2.089a2.157,2.157,0,0,0,1.761-.428,1.968,1.968,0,0,0,.741-1.316,1.742,1.742,0,0,0-.378-1.333,6.691,6.691,0,0,0-1.909-1.4,13.857,13.857,0,0,1-1.957-1.25,3.212,3.212,0,0,1-1.02-1.333,3.09,3.09,0,0,1-.246-1.629A2.927,2.927,0,0,1,685.2,10.69a3.147,3.147,0,0,1,2.35-.609,4.029,4.029,0,0,1,1.4.394,4.082,4.082,0,0,1,1.383,1.333l-.691.559a4.238,4.238,0,0,0-.428-.609,2.47,2.47,0,0,0-1.644-.872,1.726,1.726,0,0,0-1.383.329,1.626,1.626,0,0,0-.526,1.02,1.563,1.563,0,0,0,.4,1.233,7.85,7.85,0,0,0,1.922,1.415A21.056,21.056,0,0,1,690,16.166a3.1,3.1,0,0,1,1,1.282,3.554,3.554,0,0,1,.246,1.777,3.347,3.347,0,0,1-1.3,2.385,3.78,3.78,0,0,1-2.831.657" transform="translate(-580.385 -8.53)"/>
      <path id="Path_2740" data-name="Path 2740" class="cls-1" d="M321.713,125.849a2.054,2.054,0,1,1,1.01-3.844,1.847,1.847,0,0,1,.709.712l-.352.2a1.41,1.41,0,0,0-.556-.579,1.579,1.579,0,0,0-.811-.216,1.669,1.669,0,1,0,0,3.336,1.577,1.577,0,0,0,.811-.216,1.41,1.41,0,0,0,.556-.579l.352.2a1.82,1.82,0,0,1-.706.715,1.992,1.992,0,0,1-1.013.267" transform="translate(-271.323 -103.341)"/>
      <path id="Path_2741" data-name="Path 2741" class="cls-1" d="M350.222,129.916a.922.922,0,0,1,.9-.516v.363a.93.93,0,0,0-.641.227.91.91,0,0,0-.255.715v1.577h-.375v-2.837h.375Z" transform="translate(-296.972 -109.843)"/>
      <path id="Path_2742" data-name="Path 2742" class="cls-1" d="M363.122,129.318h.375v2.837h-.375V131.6a1.269,1.269,0,0,1-1.146.624,1.406,1.406,0,0,1-1.035-.431,1.514,1.514,0,0,1,0-2.111,1.406,1.406,0,0,1,1.035-.431,1.27,1.27,0,0,1,1.146.624Zm-1.912,2.215a1.13,1.13,0,0,0,1.589,0,1.145,1.145,0,0,0,0-1.594,1.13,1.13,0,0,0-1.589,0,1.144,1.144,0,0,0,0,1.594" transform="translate(-306.025 -109.716)"/>
      <path id="Path_2743" data-name="Path 2743" class="cls-1" d="M386.623,122.078a.811.811,0,0,0-.616.142.741.741,0,0,0-.2.585v.114h.817v.363h-.817v2.474h-.375v-2.474h-.482v-.363h.482V122.8a1.093,1.093,0,0,1,.309-.843,1.129,1.129,0,0,1,.882-.247Z" transform="translate(-326.769 -103.315)"/>
      <path id="Path_2744" data-name="Path 2744" class="cls-1" d="M400.438,125.6h-.817v1.719a.487.487,0,0,0,.091.332.359.359,0,0,0,.272.1q.181,0,.454-.009v.329a1.379,1.379,0,0,1-.893-.085.712.712,0,0,1-.3-.67V125.6h-.6v-.363h.6v-.681l.375-.114v.794h.817Z" transform="translate(-338.4 -105.637)"/>
      <path id="Path_2745" data-name="Path 2745" class="cls-1" d="M414.962,129.25a1.287,1.287,0,0,1,1.018.445,1.549,1.549,0,0,1,.389,1.053q0,.062-.011.176h-2.491a1.017,1.017,0,0,0,.366.684,1.166,1.166,0,0,0,.763.253,1.117,1.117,0,0,0,.559-.133.9.9,0,0,0,.355-.349l.329.193a1.347,1.347,0,0,1-.51.477,1.518,1.518,0,0,1-.738.176,1.474,1.474,0,0,1-1.089-.42,1.445,1.445,0,0,1-.42-1.067,1.461,1.461,0,0,1,.414-1.061,1.423,1.423,0,0,1,1.067-.425m0,.363a1.062,1.062,0,0,0-1.095.948h2.116a1.058,1.058,0,0,0-.346-.7,1,1,0,0,0-.675-.25" transform="translate(-350.989 -109.716)"/>
      <path id="Path_2746" data-name="Path 2746" class="cls-1" d="M439.1,122.192h.375v3.972H439.1v-.556a1.27,1.27,0,0,1-1.146.624,1.405,1.405,0,0,1-1.035-.431,1.514,1.514,0,0,1,0-2.111,1.405,1.405,0,0,1,1.035-.431,1.27,1.27,0,0,1,1.146.624Zm-1.912,3.35a1.13,1.13,0,0,0,1.588,0,1.144,1.144,0,0,0,0-1.594,1.13,1.13,0,0,0-1.588,0,1.144,1.144,0,0,0,0,1.594" transform="translate(-370.523 -103.724)"/>
      <path id="Path_2747" data-name="Path 2747" class="cls-1" d="M474.688,123.259a1.406,1.406,0,0,1,1.035.431,1.514,1.514,0,0,1,0,2.111,1.406,1.406,0,0,1-1.035.431,1.27,1.27,0,0,1-1.146-.624v.556h-.374v-3.972h.374v1.691a1.27,1.27,0,0,1,1.146-.624m-.823,2.284a1.13,1.13,0,0,0,1.589,0,1.144,1.144,0,0,0,0-1.594,1.13,1.13,0,0,0-1.589,0,1.144,1.144,0,0,0,0,1.594" transform="translate(-401.655 -103.724)"/>
      <path id="Path_2748" data-name="Path 2748" class="cls-1" d="M497.548,129.7h.4l-1.214,3.1a1.538,1.538,0,0,1-.468.661.941.941,0,0,1-.678.213v-.352q.509.057.776-.591l.072-.183-1.267-2.846h.4l1.062,2.357Z" transform="translate(-420.328 -110.098)"/>
      <path id="Path_2749" data-name="Path 2749" class="cls-1" d="M605.955,121.767c.19,0,.37,0,.549,0,.019,0,.054.044.054.068,0,.662-.008,1.324-.011,1.986a.338.338,0,0,0,.026.09.276.276,0,0,0,.094-.036c.183-.171.363-.346.544-.519q.526-.5,1.052-1.005c.19-.182.377-.368.568-.55a.135.135,0,0,1,.083-.036c.284,0,.569,0,.846,0,.159.357.314.71.473,1.06.177.39.365.776.536,1.168.156.357.3.72.442,1.081.022.054.039.11.064.163.009.02.034.033.051.05.017-.018.041-.034.049-.055.052-.14.094-.285.151-.423.1-.236.2-.469.307-.7.09-.2.18-.41.272-.614.126-.278.256-.554.382-.831.089-.195.175-.391.261-.587.038-.086.071-.174.112-.258a.091.091,0,0,1,.06-.049c.192,0,.384,0,.591,0a.674.674,0,0,1-.026.1q-.251.547-.5,1.093c-.121.262-.245.523-.364.785-.147.325-.291.653-.438.978-.094.207-.192.412-.286.619-.126.277-.249.555-.376.831-.022.049-.05.122-.088.132a.932.932,0,0,1-.263,0c-.014,0-.031-.031-.04-.051-.159-.348-.319-.7-.475-1.044-.123-.275-.239-.552-.364-.826-.173-.38-.353-.757-.527-1.137-.1-.209-.183-.422-.276-.632-.058-.131-.119-.26-.178-.389-.029-.064-.081-.077-.13-.029-.286.275-.57.553-.857.828-.176.169-.356.334-.534.5s-.33.3-.491.459a.087.087,0,0,0,.01.147c.543.456,1.082.915,1.624,1.372.253.214.509.423.763.637a.438.438,0,0,1,.064.089.5.5,0,0,1-.1.023c-.216,0-.431,0-.647,0a.316.316,0,0,1-.229-.085c-.6-.525-1.2-1.046-1.8-1.57-.1-.085-.189-.178-.286-.263a.343.343,0,0,0-.1-.041.4.4,0,0,0-.029.1q0,.587,0,1.174c0,.189,0,.378.006.568,0,.079-.032.114-.11.113-.134,0-.268,0-.4,0-.069,0-.1-.032-.1-.094,0-.039,0-.078,0-.117q0-2.041,0-4.082v-.2" transform="translate(-514.371 -103.363)"/>
      <path id="Path_2750" data-name="Path 2750" class="cls-1" d="M699.116,121.763h.408c.1.238.2.479.3.716s.2.441.3.663c.065.145.124.293.187.439.092.215.186.429.279.643q.192.442.384.884c.1.226.2.451.3.676.041.095.078.192.122.285a1.59,1.59,0,0,0,.091.151l-.023.031h-.15a3.373,3.373,0,0,0-.343,0c-.119.012-.172-.052-.212-.144-.109-.253-.22-.505-.326-.759a.141.141,0,0,0-.151-.095q-1.03,0-2.061,0a.18.18,0,0,0-.193.137c-.08.2-.187.4-.28.6-.152.327-.092.257-.428.259-.834,0-1.668,0-2.5,0-.136,0-.142-.007-.142-.142q0-2.095,0-4.189a.385.385,0,0,0,0-.068c-.013-.07.018-.094.086-.093.14,0,.281,0,.422,0,.07,0,.09.022.09.09q-.005,1.747-.007,3.494c0,.085,0,.17,0,.254s.036.133.129.133h1.766a.158.158,0,0,0,.158-.105c.181-.391.37-.779.554-1.169.09-.191.173-.385.262-.576.119-.253.242-.5.361-.756.076-.161.147-.325.222-.486.088-.187.179-.372.268-.558.049-.1.094-.206.145-.317m.136,2.957h0c.261,0,.523,0,.784,0,.087,0,.111-.035.076-.115-.093-.207-.187-.413-.275-.622-.1-.227-.189-.454-.274-.685-.077-.209-.14-.424-.212-.635a.387.387,0,0,0-.054-.082.349.349,0,0,0-.066.084c-.033.091-.049.189-.087.278-.123.292-.249.583-.381.871-.121.264-.252.524-.376.787-.011.024-.022.063-.01.08a.113.113,0,0,0,.081.037c.264,0,.529,0,.793,0" transform="translate(-589.674 -103.357)"/>
      <path id="Path_2751" data-name="Path 2751" class="cls-1" d="M572.256,121.768c.2,0,.377,0,.556,0a.091.091,0,0,1,.06.032q.268.321.533.644c.228.279.453.561.681.841s.463.563.693.845c.289.355.576.712.866,1.067.017.021.054.027.082.04a.233.233,0,0,0,.029-.076q0-1.443-.009-2.887c0-.166,0-.331,0-.5h.537v.352q0,1.953,0,3.905c0,.261.01.208-.231.236a.508.508,0,0,1-.492-.251c-.3-.384-.614-.765-.925-1.144-.385-.47-.775-.937-1.161-1.407-.186-.226-.365-.458-.55-.684a.434.434,0,0,0-.114-.072.752.752,0,0,0-.025.125c0,.081,0,.163,0,.244q0,1.532,0,3.064c0,.08-.022.123-.111.12-.1,0-.209,0-.314,0-.077,0-.123-.033-.111-.121a1.379,1.379,0,0,0,.009-.185q0-1.963,0-3.925c0-.083-.007-.167-.012-.261" transform="translate(-485.767 -103.364)"/>
      <path id="Path_2752" data-name="Path 2752" class="cls-1" d="M529.819,121.742h.11c.742,0,1.484.007,2.227,0a1.253,1.253,0,0,1,.5.1,1.685,1.685,0,0,1,.62.394,1.5,1.5,0,0,1,.387.735,2.031,2.031,0,0,1-.021.911,1.576,1.576,0,0,1-.529.845,2.237,2.237,0,0,1-1.4.51c-.382.012-.765,0-1.148,0-.139,0-.162.02-.161.156q0,.367.01.733c0,.056-.012.1-.074.1-.169,0-.339,0-.515,0Zm.579,1.721v1.1c0,.109.026.138.14.137.467,0,.935,0,1.4-.022a1.207,1.207,0,0,0,1.133-1.226,1.054,1.054,0,0,0-.443-.94,1.57,1.57,0,0,0-.869-.284c-.4-.014-.8-.007-1.206-.009-.134,0-.156.022-.156.162q0,.543,0,1.086" transform="translate(-449.744 -103.338)"/>
      <path id="Path_2753" data-name="Path 2753" class="cls-1" d="M671.415,123.986c0-.714,0-1.428,0-2.142,0-.067.023-.084.085-.083.144,0,.288,0,.431,0,.066,0,.083.024.083.086q-.007,1.863-.011,3.727c0,.137.021.158.158.157l2.226,0c.124,0,.142.023.136.143,0,.088,0,.175,0,.263s-.019.121-.11.12q-1.442,0-2.883,0c-.084,0-.117-.033-.117-.116q0-1.076,0-2.152" transform="translate(-569.939 -103.358)"/>
      <path id="Path_2754" data-name="Path 2754" class="cls-1" d="M561.037,123.99q0,1.076,0,2.152c0,.082-.028.119-.115.116-.127,0-.255,0-.382,0-.078,0-.1-.04-.1-.109q0-2.049.006-4.1c0-.071-.011-.144,0-.214a.1.1,0,0,1,.065-.068c.157-.006.314,0,.471,0,.065,0,.063.038.063.084q0,.553,0,1.105,0,.518,0,1.037h0" transform="translate(-475.734 -103.361)"/>
      <path id="Path_2755" data-name="Path 2755" class="cls-1" d="M659.521,121.8h.593v.363q0,2.01,0,4.02c0,.072-.027.1-.1.1-.137,0-.275,0-.412,0-.06,0-.085-.035-.085-.094q0-2.1.008-4.205c0-.061-.006-.122-.01-.187" transform="translate(-559.843 -103.389)"/>
    </g>
  </g>
</svg>
