<svg xmlns="http://www.w3.org/2000/svg" width="31" height="19.036" viewBox="0 0 31 19.036">
    <defs>
        <style>
            .cls-2{fill:#fff}
        </style>
    </defs>
    <g id="Group_600" data-name="Group 600" transform="translate(-1026.978 -251.978)">
        <path id="Path_424" data-name="Path 424" d="M38.143 10.478h-25.33a2.335 2.335 0 0 0-2.335 2.335V23a2.335 2.335 0 0 0 2.335 2.335h.827a1.713 1.713 0 0 1 1.155.448L17.55 28.3a.81.81 0 0 0 1.144-.052l2.152-2.355a1.713 1.713 0 0 1 1.265-.558h16.032A2.335 2.335 0 0 0 40.478 23V12.813a2.335 2.335 0 0 0-2.335-2.335" transform="translate(1017 242)" style="fill:#d80303;stroke:#fff"/>
        <path id="Path_426" data-name="Path 426" class="cls-2" d="M75.037 66.852a.393.393 0 0 1-.265-.087.665.665 0 0 1-.13-.135l-2.206-3.295v3.256a.263.263 0 0 1-.26.26h-1.262a.263.263 0 0 1-.26-.26v-6.223a.263.263 0 0 1 .26-.26h1a.393.393 0 0 1 .265.087.666.666 0 0 1 .13.135l2.206 3.295v-3.257a.263.263 0 0 1 .26-.26h1.262a.263.263 0 0 1 .26.26v6.224a.263.263 0 0 1-.26.26z" transform="translate(961.694 196.386)"/>
        <path id="Path_427" data-name="Path 427" class="cls-2" d="M161.909 65.311a.263.263 0 0 1 .26.26v1.021a.263.263 0 0 1-.26.26h-4.567a.263.263 0 0 1-.26-.26v-6.224a.263.263 0 0 1 .26-.26h4.49a.263.263 0 0 1 .26.26v1.021a.263.263 0 0 1-.26.26h-2.967v1.041h2.755a.263.263 0 0 1 .26.26v1.021a.263.263 0 0 1-.26.26h-2.755v1.079z" transform="translate(882.26 196.386)"/>
        <path id="Path_428" data-name="Path 428" class="cls-2" d="m233.716 63.624.617-3.256a.3.3 0 0 1 .116-.2.325.325 0 0 1 .183-.058h1.262a.214.214 0 0 1 .212.212.426.426 0 0 1-.01.077l-1.243 6.089a.411.411 0 0 1-.154.251.486.486 0 0 1-.328.116h-.8a.433.433 0 0 1-.313-.116.651.651 0 0 1-.169-.251l-.723-2.177-.723 2.177a.652.652 0 0 1-.169.251.434.434 0 0 1-.313.116h-.8a.486.486 0 0 1-.327-.116.41.41 0 0 1-.154-.251l-1.241-6.088a.411.411 0 0 1-.01-.077.214.214 0 0 1 .212-.212h1.259a.326.326 0 0 1 .183.058.3.3 0 0 1 .116.2l.617 3.256.569-1.744a.708.708 0 0 1 .087-.173.263.263 0 0 1 .241-.106h.906a.263.263 0 0 1 .241.106.722.722 0 0 1 .087.173z" transform="translate(816.503 196.386)"/>
    </g>
</svg>
