<svg xmlns="http://www.w3.org/2000/svg" width="89.753" height="44.244" viewBox="0 0 89.753 44.244">
  <defs>
    <style>
      .cls-1 {
        fill: #f5f5fa;
      }
    </style>
  </defs>
  <g id="Group_1933" data-name="Group 1933" transform="translate(-938.799 -2622.026)">
    <path id="Path_1" data-name="Path 1" class="cls-1" d="M2425.645,2666.27q-.871,0-1.74-.024a52.386,52.386,0,0,1-13.5-2.056c-10.084-3.01-16.422-8.9-17.847-16.588q-.216-1.163-.346-2.229-.822.039-1.607.039c-5.759,0-10.007-1.575-12.674-4.711a12.989,12.989,0,0,1-2.761-5.926,21.52,21.52,0,0,1-.279-6.065,29.689,29.689,0,0,1,1.349-6.684l1.887.663a28.24,28.24,0,0,0-1.247,6.238,19.459,19.459,0,0,0,.256,5.479,11.005,11.005,0,0,0,2.323,5c2.272,2.668,6,4.007,11.122,4.007q.711,0,1.457-.034a14.082,14.082,0,0,1,.492-4.936,4.887,4.887,0,0,1,3.618-3.621,5.806,5.806,0,0,1,4.329,1.068,5.933,5.933,0,0,1,2.536,3.528,3.65,3.65,0,0,1-.864,3.23,7.344,7.344,0,0,1-4.031,2.024l-.037.007q-2.019.361-3.87.543.121.963.315,2.011a16.159,16.159,0,0,0,5.447,9.285,28.987,28.987,0,0,0,11.006,5.751,50.4,50.4,0,0,0,12.983,1.973,61.5,61.5,0,0,0,13.979-1.221,54.1,54.1,0,0,0,13.184-4.434,37.781,37.781,0,0,0,10.628-7.612l1.445,1.383a39.766,39.766,0,0,1-11.186,8.022,56.1,56.1,0,0,1-13.672,4.6A63.662,63.662,0,0,1,2425.645,2666.27Zm-28.619-29.527a2.564,2.564,0,0,0-.494.046,2.921,2.921,0,0,0-2.1,2.269,12.173,12.173,0,0,0-.4,4.177q1.751-.175,3.676-.518c1.417-.311,3.714-1.1,3.343-2.891a4.05,4.05,0,0,0-1.713-2.286A4.209,4.209,0,0,0,2397.026,2636.743Z" transform="translate(-1436)"/>
    <path id="Path_2" data-name="Path 2" class="cls-1" d="M8.94,11.977,7.058,11.3c.561-1.559,2.1-5.359,4.217-10.005A53.561,53.561,0,0,1-.1,1.569L.1-.421l-.1,1,.1-1A51.107,51.107,0,0,0,12.786-.982l1.924-.37L13.881.423C11.38,5.775,9.556,10.265,8.94,11.977Z" transform="translate(1013.82 2651.246) rotate(1)"/>
  </g>
</svg>
