<svg xmlns="http://www.w3.org/2000/svg" width="16" height="16" viewBox="0 0 16 16">
  <g id="Group_14175" data-name="Group 14175" transform="translate(16238 22182)">
    <path id="Path_40158" data-name="Path 40158" d="M0,0H16V16H0Z" transform="translate(-16238 -22182)" fill="#fff" opacity="0"/>
    <g id="Icon_feather-check-circle" data-name="Icon feather-check-circle" transform="translate(-16238.322 -22183.059)">
      <path id="Path_40157" data-name="Path 40157" d="M16.79,17.177a.75.75,0,0,1-.53-.22l-3.29-3.29a.75.75,0,0,1,0-1.061.781.781,0,0,1,1.061,0L16.8,14.467l6.162-5.536a.75.75,0,1,1,1.081,1.04l-6.71,6.975a.75.75,0,0,1-.533.23Z" transform="translate(-10.427 -3.642)" fill="#888"/>
    </g>
  </g>
</svg>
