<svg width="16" height="16" viewBox="0 0 16 16" fill="none" xmlns="http://www.w3.org/2000/svg">
<path d="M8.77344 8.001L14.8398 1.93458C15.0534 1.721 15.0534 1.37472 14.8398 1.16116C14.6262 0.947608 14.28 0.947581 14.0664 1.16116L7.99999 7.22758L1.9336 1.16116C1.72002 0.947581 1.37374 0.947581 1.16019 1.16116C0.946632 1.37474 0.946605 1.72102 1.16019 1.93458L7.22658 8.00097L1.16019 14.0674C0.946605 14.281 0.946605 14.6273 1.16019 14.8408C1.26696 14.9476 1.40694 15.001 1.54691 15.001C1.68688 15.001 1.82683 14.9476 1.93363 14.8408L7.99999 8.77441L14.0664 14.8408C14.1732 14.9476 14.3131 15.001 14.4531 15.001C14.5931 15.001 14.733 14.9476 14.8398 14.8408C15.0534 14.6272 15.0534 14.2809 14.8398 14.0674L8.77344 8.001Z" fill="#818181"/>
</svg>
